<?xml version="1.0" encoding="UTF-8"?>
<svg id="Ebene_2" data-name="Ebene 2" xmlns="http://www.w3.org/2000/svg" viewBox="0 0 887.43 315.06">
  <defs>
    <style>
      .cls-1 {
        fill: #b78533;
        stroke: #b68433;
        stroke-miterlimit: 10;
        stroke-width: .25px;
      }

      .cls-2 {
        fill: #b78835;
      }

      .cls-3 {
        fill: #36363b;
      }
    </style>
  </defs>
  <g id="katman_1" data-name="katman 1">
    <g>
      <path class="cls-2" d="M286.28,110.22l-.04,60.4c0,3.61-.7,7.6-1.08,11.11-3.55,32.77-18.12,62.58-41.77,85.27-4.22,4.05-7.99,7.99-12.68,11.54-17.53,13.3-36.73,22.76-58.42,27.51-10.31,2.26-20.07,5.32-29.7,9l-7.92-3.02c-6.51-2.48-13.02-4.44-19.87-6-24.11-5.5-45.45-16.2-64.16-32.03-14.84-12.56-25.82-27.06-34.83-44.5C4.22,207.09.08,182.67,0,157.08L.17,61.29.11.05l110.82.06-.04,71.2c0,1.12-.06,2.54-.08,3.26-29.27-2.16-61.65,8.1-85.66,24.76-5.45,3.78-10.73,8.86-14.94,14.47-1.84,2.45-1,9.89-1.22,13.81,2.42-2.61,3.81-4.35,5.88-6.02l11.1-8.94c14-11.28,30.58-18.66,48.11-22.78,5.02-1.18,10.34-2.69,15.32-2.73l21.37-.18v9.44s.02,174.11.02,174.11c5.75,6.25,8.02,14.66,15.56,19.57l-.04-289.63,8.66-.3-.12,20.29.04,135.58v23.23s-.05,122.1-.05,122.1l6.92,4.62,9.23-4.25.02-7.68-.62-24.33,8.39-1.86.87,20.01,9.31-11.43c17.35-21.3,21.45-22,40.02-38.74,17.48-15.75,32.88-32.49,45.72-52.06,11.58-17.65,15.66-23.68,23.61-44.64l-6.74-6.72c-12.22,23.72-35.35,49.34-55.03,66.98l-13.66,12.24-10.37,8.88-12.99,10.74-21.01,16.94c-2.12,1.71-4.43,3.4-7.01,5.11V87.15s40.85.2,40.85.2c23.22.12,56.87,15.69,75.81,32.03l8.96,7.73-.1-10.72c-19.98-26.44-54.11-38.37-86.27-41.93-4.83-.54-8.42-.41-14.36-.27h-24.88s-.03-74.2-.03-74.2l133.91.02.65,93.93M101.9,52.36H20.79c-.46-2.81-.5-5.43-.09-8.31l81.3-.04.05-35.45-93.2.09v94.03s10.77-9.52,10.77-9.52c1.95-1.22,1.96-2.87,1.96-5.07v-22.05s80.3-.16,80.3-.16c.35-4.92.37-8.62.02-13.52ZM220.4,65.66c14.98-.01,28.97-.4,44.08.54-.45,12.1-.74,18.46-.83,24.71l13.61,12.53.2-94.87-117.99.04.06,35.48,105.7-.11c.41,3.04.42,5.59,0,8.38l-105.43-.02c-.24,4.79-.22,9.01.1,13.37l60.51-.04ZM30.06,86.05c9.3-5.41,17.73-9.1,27.64-12.72l-27.79.11.15,12.6ZM255.36,85.68l.09-12.16-14.74-1.04c-1.64-.12-3.28-.13-4.92-.03-3.16.19-6.65.51-9.78,1.02,5.67,1.87,11.9,3.71,17.6,6.49l11.75,5.72ZM41.96,112.36c3.57,5.33,5.9,9.65,9.41,14.08,15.32,19.29,31.1,37.13,50.67,53.79l.26-84.68c-5.44-.35-10.64-.29-15.54.17l-.14,48.27c-7.54-7.93-13.66-14.82-20.08-22.7l-12.21-14.98c-4.65,1.2-8.65,3.35-12.37,6.05ZM178.09,181.65l-.05-28.5.18-57.76-18.62.03-.18,142.29,13.87-10.66c3.9-3,5.15-4.78,5.1-10l-.3-35.39ZM211.26,165.26l-11.3,10.34-3.09-7.8c3.1-3.73,6.4-7,10.07-10.07,13.12-12.12,26.98-30.11,35.15-46.27-12.24-7.08-42.63-17.82-55.49-15.6l.15,85.21.26,33.65c3.72-1.49,5.17-3.28,7.6-5.51l11.53-10.56c19.15-17.55,38.09-35.47,51.63-57.69l7.7-12.63-15.68-12.52c-10.25,18.69-22.6,34.86-38.53,49.45ZM78.32,121.31l.34-23.92-17.38,5.29,17.04,18.63ZM92.95,211.59c3.06,2.77,5.29,5.07,9.2,7.12l.09-27.49c-18.59-15.17-35.33-31.78-50.44-50.34-4.07-4.99-7.39-9.91-10.98-15.06l-6.57-9.42c-2.46,2.15-10.45,6.88-14.36,12.55,10,16.3,21.67,29.78,33.71,44.03l2.28,2.69,27.09,26.89,9.98,9.02ZM102.18,262.6l.04-32.29-9.37-7.66c-6-4.91-11.69-10.1-17.45-15.49l-5.04-4.72c-20.27-18.99-41.77-43.57-56.94-67.1-2.51,1.05-4.54,3.45-5.44,5.86,6.91,18.09,16.17,34.34,27.53,50.11,8.33,11.57,22.8,29.18,33.02,38.82l21.05,19.85c4.55,3.76,8.01,7.42,12.59,12.62ZM167.59,292.06l-7.18,7.96c23.32-5.01,45.37-13.42,64.01-27.89,25.73-19.96,42.76-46.94,49.99-78.61,2.37-10.38,3.22-16.91,2.57-27.32-4.62,8.45-9.58,16.83-15.48,24.94l-4.6,6.32c-20.48,28.12-32.63,38.17-58.01,60.46-5.52,4.84-10.95,10.09-15.67,15.67l-15.64,18.48ZM107.35,281.24c-4.84-6.31-9.37-11.58-15.04-16.98l-24.56-23.38c-6.41-6.1-12.66-11.87-18.42-18.54-12.1-14.03-23.31-28.31-32.82-44.18l-6.68-11.13c-1.24,36.16,16.89,71.77,42.08,96.64,16.87,16.66,45.85,30.86,68.93,35.15l-13.49-17.58Z"/>
      <path class="cls-2" d="M265.36,30.66l-93.8.04c-.05-3.26-.05-5.38,0-8.55l91.38-.03c.78,0,2.5.05,2.5.05"/>
      <rect class="cls-2" x="20.06" y="22.13" width="67.63" height="8.71"/>
    </g>
    <g>
      <path class="cls-1" d="M382.36,257.77c2.54-.18,4.19-.56,4.94-1.14.75-.58,1.13-2.07,1.13-4.47v-27.77c0-2.3-.38-3.77-1.13-4.43s-2.4-1.05-4.94-1.17v-1.16h18.47v1.16c-2.54.12-4.19.51-4.94,1.17s-1.13,2.14-1.13,4.43v27.77c0,2.4.38,3.9,1.13,4.47.75.58,2.4.95,4.94,1.14v1.16h-18.47v-1.16Z"/>
      <path class="cls-1" d="M409.08,257.77c2.58-.26,4.24-.85,4.97-1.75.73-.9,1.1-3,1.1-6.29v-27.5l-.85-1c-.91-1.08-1.69-1.74-2.33-2-.64-.25-1.6-.4-2.88-.44v-1.16h10.65l24.1,29.87v-20.74c0-3.41-.51-5.63-1.52-6.66-.67-.67-2.15-1.1-4.45-1.3v-1.16h14.66v1.16c-2.38.24-3.96.82-4.75,1.74-.79.91-1.19,3.01-1.19,6.28v32.86h-1.07l-27.61-34.23v24.3c0,3.41.5,5.63,1.49,6.67.65.67,2.1,1.13,4.36,1.37v1.16h-14.66v-1.16Z"/>
      <path class="cls-1" d="M477.32,217.62v1.07c-1.56.02-2.63.12-3.19.31-1,.33-1.49,1-1.49,2.01,0,.52.18,1.24.53,2.17.35.93,1.02,2.47,1.99,4.62l9.77,21.73,8.87-23.52c.39-1.04.69-1.92.89-2.64.2-.72.31-1.31.31-1.76,0-1.22-.52-2.04-1.55-2.48-.61-.25-1.61-.39-3.01-.43v-1.07h12.77v1.07c-1.32.18-2.3.54-2.93,1.07-.96.79-1.9,2.39-2.83,4.79l-13.82,35.11h-.94l-15.43-34.31c-1.3-2.91-2.34-4.72-3.12-5.43-.78-.71-1.93-1.12-3.43-1.22v-1.07h16.63Z"/>
      <path class="cls-1" d="M511.73,257.77c2.3-.24,3.78-.65,4.47-1.23.68-.58,1.02-2.04,1.02-4.38v-27.77c0-2.21-.34-3.66-1.01-4.34-.67-.68-2.16-1.1-4.48-1.26v-1.16h33.16l.21,8.93h-1.58c-.53-2.75-1.32-4.53-2.38-5.34-1.06-.81-3.41-1.21-7.07-1.21h-8.5c-.92,0-1.48.15-1.7.44-.21.29-.32.85-.32,1.66v13.93h9.63c2.66,0,4.36-.39,5.09-1.18.73-.79,1.32-2.39,1.77-4.79h1.46v14.42h-1.46c-.47-2.42-1.07-4.02-1.8-4.8-.73-.78-2.42-1.17-5.06-1.17h-9.63v15.45c0,1.24.39,1.97,1.18,2.19s3.13.33,7.04.33c4.23,0,7.36-.46,9.37-1.39,2.01-.92,3.82-3.16,5.43-6.72h1.74l-2.83,10.55h-33.74v-1.16Z"/>
      <path class="cls-1" d="M559.42,246.37c1.05,2.8,2.29,5.04,3.71,6.7,2.48,2.91,5.55,4.36,9.22,4.36,1.99,0,3.71-.63,5.16-1.89,1.45-1.26,2.18-3.02,2.18-5.27,0-2.03-.73-3.8-2.19-5.3-.95-.96-2.96-2.39-6.02-4.3l-5.32-3.32c-1.6-1.02-2.88-2.04-3.84-3.08-1.77-1.97-2.65-4.15-2.65-6.52,0-3.15,1.05-5.77,3.14-7.86,2.09-2.09,4.87-3.14,8.32-3.14,1.42,0,3.13.35,5.14,1.05,2,.7,3.14,1.05,3.43,1.05.77,0,1.3-.18,1.6-.55.29-.37.52-.88.69-1.55h1.28l1.37,13.29h-1.49c-1.02-4-2.65-6.8-4.89-8.38-2.25-1.58-4.47-2.38-6.66-2.38-1.71,0-3.2.5-4.47,1.51-1.27,1.01-1.9,2.4-1.9,4.19,0,1.61.49,2.98,1.46,4.11.97,1.16,2.48,2.37,4.54,3.63l5.48,3.38c3.43,2.11,5.85,4.05,7.26,5.82,1.39,1.79,2.08,3.9,2.08,6.34,0,3.27-1.23,6-3.7,8.2-2.47,2.19-5.62,3.29-9.46,3.29-1.93,0-3.95-.37-6.05-1.1-2.1-.73-3.31-1.1-3.61-1.1-.73,0-1.22.22-1.48.67-.25.45-.42.92-.5,1.43h-1.37l-1.86-13.29h1.43Z"/>
      <path class="cls-1" d="M597.58,217.62h35.3l.33,10.61h-1.49c-.73-3.33-1.66-5.5-2.79-6.51-1.13-1.01-3.5-1.51-7.12-1.51h-3.47v31.94c0,2.4.38,3.9,1.13,4.47.75.58,2.4.95,4.94,1.14v1.16h-18.2v-1.16c2.64-.2,4.29-.64,4.94-1.3.65-.67.98-2.35.98-5.04v-31.21h-3.51c-3.45,0-5.81.5-7.06,1.49-1.25,1-2.19,3.17-2.82,6.52h-1.52l.37-10.61Z"/>
      <path class="cls-1" d="M691.72,217.9c2.34.67,3.68,1.01,4.02,1.01.89,0,1.53-.17,1.9-.52s.7-.84.96-1.49h1.37l.49,13.14h-1.43c-1.28-3.03-2.6-5.28-3.96-6.77-2.46-2.6-5.66-3.9-9.6-3.9s-7.52,1.52-10.56,4.56c-3.04,3.04-4.56,8.04-4.56,15.01,0,5.75,1.51,10.24,4.54,13.47,3.03,3.23,6.77,4.85,11.22,4.85.75,0,1.64-.07,2.65-.21,1.02-.14,1.98-.36,2.9-.67,1.48-.49,2.41-.91,2.77-1.26.37-.36.55-.88.55-1.57v-9.94c0-2.41-.34-3.91-1.02-4.5s-2.17-.96-4.47-1.1v-1.16h15.91v1.16c-1.54.1-2.57.36-3.08.76-.85.65-1.28,1.99-1.28,4.02v12.28c0,.73-1.79,1.71-5.38,2.93-3.59,1.22-7.04,1.83-10.35,1.83-6.1,0-11.24-1.78-15.42-5.33-4.61-3.92-6.92-9.18-6.92-15.79,0-5.81,1.84-10.79,5.52-14.94,4.04-4.57,9.41-6.86,16.09-6.86,2.42,0,4.79.33,7.13,1.01Z"/>
      <path class="cls-1" d="M713.81,258.13c1.58-.14,2.64-.41,3.17-.79.81-.59,1.22-1.77,1.22-3.54v-15.76c0-1.5-.2-2.49-.59-2.96-.4-.47-1.05-.7-1.97-.7-.43,0-.75.02-.96.06s-.46.11-.75.21v-1.07l2.19-.73c.79-.26,2.09-.74,3.9-1.43,1.81-.69,2.76-1.04,2.87-1.04s.16.05.18.15c.02.1.03.29.03.58v4.11c2.01-1.83,3.75-3.09,5.21-3.79,1.46-.7,2.97-1.05,4.51-1.05,2.09,0,3.76.71,5,2.13.65.77,1.19,1.82,1.62,3.14,1.5-1.52,2.81-2.65,3.93-3.38,1.93-1.26,3.9-1.89,5.91-1.89,3.27,0,5.46,1.33,6.55,3.99.63,1.5.94,3.88.94,7.13v12.65c0,1.44.32,2.42.96,2.94.64.52,1.79.86,3.46,1.02v.79h-13.75v-.85c1.77-.16,2.93-.52,3.49-1.07.56-.55.84-1.67.84-3.35v-13.14c0-1.97-.21-3.42-.64-4.36-.75-1.67-2.23-2.5-4.42-2.5-1.32,0-2.63.44-3.93,1.31-.75.51-1.68,1.32-2.77,2.44v15.61c0,1.65.29,2.9,.87,3.75.58.85,1.8,1.31,3.67,1.37v.79h-13.99v-.79c1.93-.24,3.16-.71,3.69-1.4.53-.69.79-2.4.79-5.12v-8.52c0-3.12-.2-5.27-.61-6.45-.67-1.99-2.09-2.99-4.27-2.99-1.24,0-2.46.34-3.66,1.02-1.2.68-2.26,1.57-3.17,2.67v16.67c0,1.54.27,2.61.81,3.2.54.59,1.71.89,3.52.91v.79h-13.87v-.79Z"/>
      <path class="cls-1" d="M767.81,220.15v-1.04c2.32-.53,4.41-1.12,6.27-1.77,1.86-.65,2.85-.98,3-.98.04.12.06.24.06.37v18.56c.53-.97,1.32-1.9,2.37-2.77,1.87-1.52,4.02-2.29,6.45-2.29,2.98,0,5.53,1.26,7.64,3.78,2.11,2.52,3.16,5.79,3.16,9.81,0,4.31-1.37,8-4.11,11.06s-6.35,4.6-10.82,4.6c-2.26,0-4.47-.45-6.64-1.34-2.17-.89-3.26-1.79-3.26-2.68v-32.22c0-1.18-.16-2.02-.49-2.51-.33-.5-1.08-.75-2.26-.75l-1.37.15ZM779.41,256.72c1.4.46,2.62.68,3.67.68,2.83,0,4.93-1.07,6.3-3.2,1.37-2.13,2.05-4.71,2.05-7.73s-.64-5.82-1.91-8.39c-1.27-2.57-3.34-3.85-6.19-3.85-1.44,0-2.84.44-4.22,1.32-1.38.88-2.06,2-2.06,3.36v15.52c.18,1.05.97,1.81,2.37,2.27Z"/>
      <path class="cls-1" d="M806.06,257.77c2.44-.26,3.96-.71,4.57-1.35.61-.64.91-2.3.91-4.99v-27.04c0-2.23-.34-3.69-1.02-4.36s-2.17-1.09-4.47-1.25v-1.16h17.31v1.16c-2.28.16-3.77.58-4.46,1.25-.69.67-1.03,2.12-1.03,4.36v12.16h18.96v-12.16c0-2.23-.33-3.69-1.01-4.36s-2.16-1.09-4.48-1.25v-1.16h17.31v1.16c-2.3.16-3.78.58-4.47,1.25s-1.02,2.12-1.02,4.36v27.77c0,2.26.34,3.71,1.02,4.35.68.64,2.17,1.06,4.47,1.26v1.16h-17.31v-1.16c2.46-.24,3.99-.69,4.59-1.33.6-.65.9-2.32.9-5.01v-12.13h-18.96v12.86c0,2.26.34,3.72,1.03,4.37.69.65,2.17,1.06,4.46,1.24v1.16h-17.31v-1.16Z"/>
    </g>
    <g>
      <path class="cls-3" d="M886.61,157.46l-44.59-.06c-.97,0-1.08-3.62-.45-3.81h2.35c6.43.34,11.33-3.74,11.34-10.26l.04-43.05-65.27-.02.34,43.18c.05,6.2,4.45,9.93,10.39,10.2,1.1.05,2.26.31,3.21.92.36.23.58.53.65.81.26,1.06.37,2.16-1.07,2.15l-45.17-.21c-.84,0-.99-1.61-.63-2.1,1.9-2.51,14.51.58,14.51-11.93V55.71c0-2.5-1.55-6.05-2.91-7.37-1.69-1.66-5.72-2.14-8.32-2.58l-2.7-.46c-.7-.12-.68-2.59.1-2.6l45.48-.26c.64,0,.92,2.02.45,2.39-3.27,2.56-6.85.02-10.91,3.69-1.57,1.42-3.17,5.43-3.18,8.01l-.29,38.06h65.53s-.26-38.89-.26-38.89c-.04-6.46-5.3-10.27-11.49-9.78l-2.22-.04c-.62-.05-.81-1.59-.62-3.31l45.23-.12c.98,0,.86,2.33.39,2.64-3.31,2.25-6.51.09-10.25,3.4-1.57,1.39-3.1,5.45-3.1,8.21l.07,86.59c0,6.68,4.69,9.57,10.71,10.51.56.09,2.38.39,2.99.53s.65,3.13-.38,3.13Z"/>
      <path class="cls-3" d="M436.64,147.05c-8.37,7.19-18.63,10.38-29.65,10.36l-61.78-.12c-1.08,0-2.03-2.93-1.4-2.99l2.93-.29c3.12-.31,6.95-1.1,8.97-2.71,1.88-1.49,3.49-5.68,3.49-8.76V57.63c.01-3.13-1.48-7.43-3.19-9-4.92-4.49-11.38-.97-12.27-3.8-.22-.72,1.16-2.3,2.34-2.3l57.33.03c14.98,0,34.51,7.34,36.42,24.63,1.85,16.73-11.16,26.31-26.65,29.14,8.28,2.08,15.44,3.51,21.89,8.38,13.32,10.05,14.81,30.95,1.56,42.33ZM415.22,86.88c9.15-10.07,7.55-27.95-4.48-34.97-10.18-5.95-22.56-5.11-33.32-2.29l-.08,44.97c12.1-.22,29.06,1.99,37.88-7.71ZM416.98,146.22c12.13-9.48,12.13-28.75,1.34-38.88-9.6-9.01-29.39-7.75-41.05-7.34l.23,42.26c.03,4.6,3.19,7.9,7.52,8.76,10.58,2.11,22.52,2.58,31.96-4.8Z"/>
      <path class="cls-3" d="M650.59,141.76c14.86,14.3,38.19,16.7,55.33,5.8,13.46-8.56,16.36-27.62,16.8-27.61l2.73.12-.39,34.14-4.48-3.04c-23.26,9.44-48.66,13.25-72.4,2.75-35.97-15.91-42-61.54-21.39-89.26,11.21-15.09,28.47-22.91,47.2-24.31,12.64-.95,24.7.92,36.96,4.01,3.91.98,7.43,1.07,11.89.8l.6,9.71,1.12,17.97c.04.58-.11,2.41-.19,3.04-.09.74-1.99.36-3.13.19-3.11-17.18-17.47-28.42-34.52-30.26-21.71-2.34-40.93,9.08-47.9,30.02-6.8,20.46-5.35,49.46,11.77,65.93Z"/>
      <path class="cls-3" d="M548.69,116.16h-45.82s-11.54,26.91-11.54,26.91c-.79,1.84-.14,6.3,1.03,7.77,1.43,1.78,5.02,2.77,7.67,3.13l2.96.4c.59.08-.38,2.96-1.12,2.96l-32.47.07c-.97,0-1.76-.33-2.13-.57-4.15-2.64,9.99-1.95,16.05-15.14l45.82-99.88,5.49-.13,44.83,101.78c2.31,5.23,6.35,9.06,11.37,10.32l2.99.75c.61.15.78,2.42.42,2.81l-45.11.1c-.05-1.68-.15-3.2.46-3.27l3.23-.37c2.18-.25,5.64-1.32,6.94-2.86s1.12-5.02.68-7.36l-11.75-27.39ZM546.48,110.67l-20.52-46.06-20.99,46.03,41.51.02Z"/>
    </g>
  </g>
</svg>